<svg width="21" height="20" viewBox="0 0 21 20" fill="none" xmlns="http://www.w3.org/2000/svg">
<path d="M4.80001 15.6C3.8058 15.6 3.00001 16.4058 3.00001 17.4C3.00001 18.3942 3.8058 19.2 4.80001 19.2C5.79422 19.2 6.60001 18.3942 6.60001 17.4C6.60001 16.4058 5.79418 15.6 4.80001 15.6ZM19.2 3.00001H5.51506C4.71952 3.00001 3.95656 2.68403 3.39397 2.12156L1.53602 0.26401C1.37341 0.100814 1.14841 0 0.900015 0C0.402603 3.43137e-05 0 0.402603 0 0.900015C0 1.14841 0.100814 1.37341 0.26401 1.53602L1.52163 2.794C2.08405 3.35659 2.40001 4.11952 2.40001 4.91502V12.6C2.40001 13.5942 3.20579 14.4 4.2 14.4H15.6C16.3248 14.4 16.95 13.971 17.2356 13.3536L20.8356 5.55364C20.9406 5.32446 21 5.06886 21 4.80004C21 3.80584 20.1936 3.00001 19.2 3.00001ZM16.2436 11.2059C15.8512 12.0558 15.0006 12.6 14.0645 12.6H6.6C5.27452 12.6 4.2 11.5255 4.2 10.2C4.2 8.87454 5.27452 7.80002 6.60001 7.80002H14.0645C15.8161 7.80002 16.9777 9.61561 16.2436 11.2059ZM18.7035 5.87713C18.6689 5.95205 18.594 6.00003 18.5114 6.00003H4.80001C4.46863 6.00003 4.2 5.7314 4.2 5.40002C4.2 5.06864 4.46863 4.80001 4.80001 4.80001H19.1999C19.2 4.80001 19.2 4.79998 19.2001 4.79993C19.2003 4.79971 19.2007 4.79996 19.2005 4.80024L18.7035 5.87713ZM14.4 15.6C13.4064 15.6 12.6 16.4058 12.6 17.4C12.6 18.3942 13.4064 19.2 14.4 19.2C15.3936 19.2 16.2 18.3942 16.2 17.4C16.2 16.4058 15.3936 15.6 14.4 15.6Z" fill="white"/>
</svg>
