<svg width="97" height="120" viewBox="0 0 97 120" fill="none" xmlns="http://www.w3.org/2000/svg">
<path d="M27 87V114.51C27 115.221 27.7207 115.705 28.3786 115.436L40.4444 110.5M70 87V114.483C70 115.201 69.2659 115.685 68.6061 115.403L57.1667 110.5M57.1667 110.5L49.3849 107.165C49.1387 107.059 48.8604 107.057 48.6124 107.159L40.4444 110.5M57.1667 110.5V87M40.4444 110.5V87" stroke="#007CB6" stroke-width="7" stroke-linecap="round"/>
<path d="M31 58.5L46.5 68.5L65.5 30" stroke="#007CB6" stroke-width="7" stroke-linecap="round"/>
<path d="M55.7292 12.5481L58.2497 10.1197L55.7292 12.5481C56.8863 13.7491 58.6127 14.2117 60.2153 13.7502L59.2466 10.3869L60.2153 13.7502L70.2277 10.8665L72.7366 20.9793C73.1382 22.598 74.402 23.8618 76.0207 24.2634L86.1335 26.7723L83.2498 36.7847C82.7883 38.3873 83.2509 40.1137 84.4519 41.2708L91.9555 48.5L84.4519 55.7292C83.2509 56.8863 82.7883 58.6127 83.2498 60.2153L86.1335 70.2277L76.0207 72.7366C74.402 73.1382 73.1382 74.402 72.7366 76.0206L70.2277 86.1335L60.2153 83.2498C58.6127 82.7883 56.8863 83.2509 55.7292 84.4519L48.5 91.9555L41.2708 84.4519C40.1137 83.2509 38.3873 82.7883 36.7847 83.2498L26.7723 86.1335L24.2634 76.0207C23.8618 74.402 22.598 73.1382 20.9794 72.7366L20.1366 76.1336L20.9793 72.7366L10.8665 70.2277L13.7502 60.2153L10.3869 59.2466L13.7502 60.2153C14.2117 58.6127 13.7491 56.8863 12.5481 55.7292L5.04455 48.5L12.5481 41.2708L10.1197 38.7503L12.5481 41.2708C13.7491 40.1137 14.2117 38.3873 13.7502 36.7847L10.3869 37.7534L13.7502 36.7847L10.8665 26.7723L20.9793 24.2634C22.598 23.8618 23.8618 22.598 24.2634 20.9793L26.7723 10.8665L36.7847 13.7502L37.7534 10.3869L36.7847 13.7502C38.3873 14.2117 40.1137 13.7491 41.2708 12.5481L48.5 5.04455L55.7292 12.5481ZM69.6029 8.34794L69.6041 8.35267C69.6037 8.35109 69.6033 8.34951 69.6029 8.34793L72.0293 7.74597L69.6029 8.34794ZM88.6521 69.6029L88.6478 69.604C88.6492 69.6036 88.6507 69.6032 88.6521 69.6029L89.254 72.0293L88.6521 69.6029ZM69.6029 88.6521C69.6032 88.6507 69.6036 88.6492 69.604 88.6478L69.6029 88.6521L72.0293 89.254L69.6029 88.6521ZM8.34793 69.6029C8.34947 69.6033 8.35102 69.6037 8.35256 69.604L8.34794 69.6029L7.74597 72.0293L8.34793 69.6029Z" stroke="#007CB6" stroke-width="7"/>
</svg>
