<svg width="18" height="18" viewBox="0 0 18 18" fill="none" xmlns="http://www.w3.org/2000/svg">
<path d="M16.4693 11.2702L13.5533 9.77229C12.8395 9.40441 11.9165 9.52985 11.3247 10.0738L10.9844 10.3854C10.6542 10.6892 10.1395 10.7595 9.7396 10.5525C8.7451 10.0406 7.94972 9.24526 7.43728 8.253C7.22749 7.84574 7.29443 7.34624 7.60545 7.00874L7.91766 6.669C8.25234 6.30506 8.43628 5.83256 8.43628 5.33926C8.43628 5.02876 8.3609 4.71826 8.2186 4.4415L6.71899 1.52776C6.23354 0.586118 5.27446 0 4.2164 0C3.59428 0 3.00478 0.199147 2.51202 0.575441L1.62555 1.25156C0.233372 2.31244 -0.338715 4.1445 0.200725 5.81006C1.99734 11.3507 6.35166 15.8192 11.8484 17.7638C12.2922 17.9207 12.7563 18 13.2271 18C14.3279 18 15.4012 17.5528 16.1724 16.7715L17.1877 15.7449C17.7119 15.2151 17.9999 14.5142 17.9999 13.7711C17.9999 12.7131 17.4132 11.7551 16.4693 11.2702ZM15.9862 14.5603L14.9714 15.5869C14.32 16.2461 13.2884 16.4841 12.4109 16.1736C7.40634 14.4039 3.44184 10.3348 1.80611 5.29032C1.48717 4.30426 1.82522 3.22032 2.64928 2.592L3.53634 1.91532C3.73266 1.76571 3.96778 1.68638 4.2164 1.68638C4.6394 1.68638 5.02357 1.92094 5.21763 2.2995L6.71669 5.21324C6.73693 5.25262 6.74763 5.29535 6.74763 5.33979C6.74763 5.42979 6.70713 5.49224 6.67284 5.52935L6.36122 5.86853C5.57484 6.72353 5.4044 7.99197 5.9371 9.02529C6.60987 10.3314 7.65834 11.3776 8.96616 12.0515C9.98148 12.5746 11.2854 12.3986 12.1252 11.628L12.466 11.3152C12.5212 11.2646 12.664 11.2117 12.7822 11.2719L15.6982 12.7699C16.0773 12.9645 16.3124 13.3481 16.3124 13.7711C16.3118 14.0676 16.196 14.3477 15.9862 14.5603Z" fill="#F2F2F0"/>
</svg>
