<svg width="19" height="15" viewBox="0 0 19 15" fill="none" xmlns="http://www.w3.org/2000/svg">
<path d="M17.8125 0H1.1875C0.532 0 0 0.516923 0 1.15385V13.8462C0 14.4837 0.532 15 1.1875 15H17.8125C18.4686 15 19 14.4837 19 13.8462V1.15385C19 0.516923 18.4686 0 17.8125 0ZM17.2188 13.2692H1.78125V4.4429L8.73643 10.1141C8.95791 10.2941 9.22925 10.3846 9.5 10.3846C9.77134 10.3846 10.0421 10.2941 10.2636 10.1141L17.2188 4.4429V13.2692ZM17.2188 2.18365L9.5 8.47674L1.78125 2.18365V1.73077H17.2188V2.18365Z" fill="#F2F2F0"/>
</svg>
