<svg width="31" height="32" viewBox="0 0 31 32" fill="none" xmlns="http://www.w3.org/2000/svg">
<path d="M15.5 8.01367C16.8672 8.01367 18.166 8.42383 19.3965 9.10742C20.627 9.79102 21.584 10.748 22.2676 11.9785C22.9512 13.209 23.3613 14.5078 23.3613 15.875C23.3613 17.3105 22.9512 18.6094 22.2676 19.8398C21.584 21.0703 20.627 22.0273 19.3965 22.7109C18.166 23.3945 16.8672 23.7363 15.5 23.7363C14.0645 23.7363 12.7656 23.3945 11.5352 22.7109C10.3047 22.0273 9.34766 21.0703 8.66406 19.8398C7.98047 18.6094 7.63867 17.3105 7.63867 15.875C7.63867 14.5078 7.98047 13.209 8.66406 11.9785C9.34766 10.748 10.3047 9.79102 11.5352 9.10742C12.7656 8.42383 14.0645 8.01367 15.5 8.01367ZM15.5 21.002C16.8672 21.002 18.0977 20.5234 19.123 19.498C20.0801 18.541 20.627 17.3105 20.627 15.875C20.627 14.5078 20.0801 13.2773 19.123 12.252C18.0977 11.2949 16.8672 10.748 15.5 10.748C14.0645 10.748 12.834 11.2949 11.877 12.252C10.8516 13.2773 10.373 14.5078 10.373 15.875C10.373 17.3105 10.8516 18.541 11.877 19.498C12.834 20.5234 14.0645 21.002 15.5 21.002ZM25.5488 7.67188C25.5488 7.19336 25.3438 6.7832 25.002 6.37305C24.5918 6.03125 24.1816 5.82617 23.7031 5.82617C23.1562 5.82617 22.7461 6.03125 22.4043 6.37305C21.9941 6.7832 21.8574 7.19336 21.8574 7.67188C21.8574 8.21875 21.9941 8.62891 22.4043 8.9707C22.7461 9.38086 23.1562 9.51758 23.7031 9.51758C24.1816 9.51758 24.5918 9.38086 24.9336 8.9707C25.2754 8.62891 25.4805 8.21875 25.5488 7.67188ZM30.7441 9.51758C30.7441 10.8164 30.8125 12.9355 30.8125 15.875C30.8125 18.8828 30.7441 21.002 30.6758 22.3008C30.6074 23.5996 30.4023 24.6934 30.1289 25.6504C29.7188 26.8125 29.0352 27.8379 28.2148 28.6582C27.3945 29.4785 26.3691 30.0938 25.2754 30.5039C24.3184 30.8457 23.1562 31.0508 21.8574 31.1191C20.5586 31.1875 18.4395 31.1875 15.5 31.1875C12.4922 31.1875 10.373 31.1875 9.07422 31.1191C7.77539 31.0508 6.68164 30.8457 5.72461 30.4355C4.5625 30.0938 3.53711 29.4785 2.7168 28.6582C1.89648 27.8379 1.28125 26.8125 0.871094 25.6504C0.529297 24.6934 0.324219 23.5996 0.255859 22.3008C0.1875 21.002 0.1875 18.8828 0.1875 15.875C0.1875 12.9355 0.1875 10.8164 0.255859 9.51758C0.324219 8.21875 0.529297 7.05664 0.871094 6.09961C1.28125 5.00586 1.89648 3.98047 2.7168 3.16016C3.53711 2.33984 4.5625 1.65625 5.72461 1.24609C6.68164 0.972656 7.77539 0.767578 9.07422 0.699219C10.373 0.630859 12.4922 0.5625 15.5 0.5625C18.4395 0.5625 20.5586 0.630859 21.8574 0.699219C23.1562 0.767578 24.3184 0.972656 25.2754 1.24609C26.3691 1.65625 27.3945 2.33984 28.2148 3.16016C29.0352 3.98047 29.7188 5.00586 30.1289 6.09961C30.4023 7.05664 30.6074 8.21875 30.7441 9.51758ZM27.4629 24.8984C27.7363 24.1465 27.873 22.916 28.0098 21.207C28.0098 20.25 28.0781 18.8145 28.0781 16.9688V14.7812C28.0781 12.9355 28.0098 11.5 28.0098 10.543C27.873 8.83398 27.7363 7.60352 27.4629 6.85156C26.916 5.48438 25.8906 4.45898 24.5234 3.91211C23.7715 3.63867 22.541 3.50195 20.832 3.36523C19.8066 3.36523 18.3711 3.29688 16.5938 3.29688H14.4062C12.5605 3.29688 11.125 3.36523 10.168 3.36523C8.45898 3.50195 7.22852 3.63867 6.47656 3.91211C5.04102 4.45898 4.08398 5.48438 3.53711 6.85156C3.26367 7.60352 3.05859 8.83398 2.99023 10.543C2.92188 11.5684 2.92188 13.0039 2.92188 14.7812V16.9688C2.92188 18.8145 2.92188 20.25 2.99023 21.207C3.05859 22.916 3.26367 24.1465 3.53711 24.8984C4.08398 26.334 5.10938 27.291 6.47656 27.8379C7.22852 28.1113 8.45898 28.3164 10.168 28.3848C11.125 28.4531 12.5605 28.4531 14.4062 28.4531H16.5938C18.4395 28.4531 19.875 28.4531 20.832 28.3848C22.541 28.3164 23.7715 28.1113 24.5234 27.8379C25.8906 27.291 26.916 26.2656 27.4629 24.8984Z" fill="#516275"/>
</svg>
