<svg width="113" height="58" viewBox="0 0 113 58" fill="none" xmlns="http://www.w3.org/2000/svg">
<path d="M48.85 3.85C48.5 -0.250003 38.25 -4 30.85 15.05C30.85 15.05 27.2 24.4 26.6 25.75C10.55 27.65 13.9 10.1 24.2 8.85C26.4 8.55 26.2 7.5 24.1 8C7 11.9 11.5 27.45 25.9 27C24.1 30.7 22.55 33.7 20.65 36.65C17 36 11.65 36.15 8.1 37.2C-5.35 41.25 1.75 52.55 12.2 47.5C15.45 45.95 18.45 43 21.05 39.35C27.4 40.6 34.3 42.05 39.15 46.35C42.55 49.3 42.4 54.35 41.6 56.1C41.2 56.95 40.1 58.75 42.25 57.6C42.65 57.4 43.1 57 43.5 56.25C44.75 54.15 43.7 48.25 38.95 44.55C34.3 40.95 27.45 38.3 22.55 37.1L23.6 35.4C25.4 32.2 26.55 29.75 28 26.8C38.65 25 49.7 13.95 48.85 3.85ZM46.8 4.95C46.85 14.2 37.7 23.45 28.7 25.45C30.75 21.2 33.1 16.75 33.1 16.75C40.85 1.6 46.75 1.6 46.8 4.95ZM19.1 39.05C16.7 42.45 14.1 44.8 11.4 46.1C2.25 50.5 -3.4 42.35 8.7 39.25C11.95 38.4 15.8 38.35 19.1 39.05ZM57.6457 33.8C58.1457 32.8 57.3957 32.5 56.9457 33.4C55.8957 35.55 52.5957 41.9 50.4957 41.8C49.8457 41.8 49.5957 40.85 49.9957 38.8C50.6457 35.75 53.5957 30.5 54.6457 29.45C53.9457 29.6 53.1957 29.3 52.5457 29.25C50.9457 29.15 50.2457 30.35 49.1457 32.45C47.8457 34.9 46.4457 37.35 44.6957 39.45C42.3457 42.25 39.5957 42.65 40.0957 39.15C40.3957 37.25 41.7457 34.8 42.1457 34.1C43.9457 31.15 46.5457 28.2 48.7957 26.95C50.6457 25.95 52.4957 26.35 53.0457 28.2C53.8957 28.35 54.2957 27.5 53.5957 26.75C50.7457 23.65 44.9957 25.5 41.9957 29.05C34.4457 38.1 38.2457 46.85 43.9957 41.35C45.4457 39.95 46.7957 37.95 47.5957 36.65C46.0957 41.9 48.4457 43.2 50.0957 43.1C53.0957 42.85 56.1457 36.85 57.6457 33.8ZM74.3762 33.8C74.8762 32.8 74.0762 32.45 73.6762 33.35C72.6262 35.45 69.4262 42 66.8262 42C66.1762 42 65.6262 41.55 66.0262 39.5C66.6762 36 72.0262 26.6 72.0262 26.6C70.3262 26 65.1762 29.15 62.7762 31.3C61.2262 32.65 59.6262 34.55 58.6262 35.8C60.4262 32.2 63.1762 27.2 64.6762 26.4C63.9762 26.55 63.2262 26.25 62.5762 26.2C60.9762 26.1 60.3262 26.95 59.0262 29.35C56.5762 33.85 54.5262 38.6 52.1262 43.35C52.6262 43.05 53.0762 43.1 53.8262 43.05C54.8762 43.05 55.3262 43 55.7262 42.3C58.5262 36.75 60.9762 33.95 62.6762 32.4C66.5262 28.8 67.4262 30.15 66.2262 32.1C64.8262 34.35 63.8762 36.05 63.4762 37.35C61.9762 42 64.3762 43.2 66.1262 43.2C69.9762 43.2 72.8762 36.85 74.3762 33.8ZM86.7242 33.65C87.2242 32.6 86.2242 32.7 85.8242 33.6C84.6742 36.25 81.9742 42.15 77.5742 42.15C74.2742 42.15 75.1242 37.1 75.8742 35.3C77.2242 35.3 80.4742 34.25 82.0242 33.1C85.2242 30.65 86.6742 27.25 84.7742 25.8C82.5742 24.15 78.7742 26.05 76.2242 29.05C74.0242 31.65 72.3242 35.4 72.3742 38.4C72.4242 41.55 74.6742 43.2 77.1742 43.2C82.7242 43.2 84.8742 37.65 86.7242 33.65ZM81.5242 32.25C79.7242 33.75 77.1242 34.45 76.2242 34.45C76.6742 33.55 77.9242 31.35 79.2242 29.75C85.3742 22.3 85.6242 28.8 81.5242 32.25ZM99.1289 26.2C100.079 24 96.2789 24 94.8789 28.45C94.4289 29.8 94.5789 31.9 95.2789 33.45C93.2789 38.4 90.5789 42.6 88.1789 41.55C86.8789 40.95 88.1289 37.25 89.3789 33.95C90.0289 32.3 90.7789 29.55 90.8289 27.9C90.9289 25.45 90.4789 25.7 89.0289 25.85C88.6289 25.9 86.5789 26.25 86.5789 26.25C87.9289 26.6 87.4289 30.5 86.4289 32.45L85.5289 34.15C85.2289 34.85 85.8789 35.15 86.4289 34.3C85.0289 38.15 83.7789 42.65 86.7789 43.25C93.6789 44.65 97.8789 30.05 99.0289 26.45C99.0289 26.35 99.0789 26.25 99.1289 26.2ZM112.115 33.65C112.615 32.6 111.615 32.7 111.215 33.6C110.065 36.25 107.365 42.15 102.965 42.15C99.6648 42.15 100.515 37.1 101.265 35.3C102.615 35.3 105.865 34.25 107.415 33.1C110.615 30.65 112.065 27.25 110.165 25.8C107.965 24.15 104.165 26.05 101.615 29.05C99.4148 31.65 97.7148 35.4 97.7648 38.4C97.8148 41.55 100.065 43.2 102.565 43.2C108.115 43.2 110.265 37.65 112.115 33.65ZM106.915 32.25C105.115 33.75 102.515 34.45 101.615 34.45C102.065 33.55 103.315 31.35 104.615 29.75C110.765 22.3 111.015 28.8 106.915 32.25Z" fill="white"/>
</svg>
