<svg width="87" height="16" viewBox="0 0 87 16" fill="none" xmlns="http://www.w3.org/2000/svg">
<path d="M7.01236 1.81699C7.37917 1.07374 8.43902 1.07374 8.80583 1.81699L10.0008 4.23836C10.1465 4.5335 10.4281 4.73807 10.7538 4.7854L13.4259 5.17368C14.2461 5.29287 14.5737 6.30084 13.9801 6.87937L12.0466 8.76415C11.8109 8.99389 11.7033 9.32489 11.759 9.64928L12.2154 12.3106C12.3555 13.1275 11.4981 13.7505 10.7645 13.3648L8.37443 12.1083C8.08311 11.9551 7.73508 11.9551 7.44375 12.1083L5.05372 13.3648C4.32009 13.7505 3.46266 13.1275 3.60277 12.3106L4.05922 9.64928C4.11486 9.32489 4.00731 8.99389 3.77163 8.76415L1.83805 6.87938C1.24453 6.30084 1.57204 5.29287 2.39226 5.17368L5.0644 4.7854C5.39011 4.73807 5.67168 4.5335 5.81734 4.23836L7.01236 1.81699Z" fill="#EBBB28"/>
<path d="M24.8078 1.81699C25.1746 1.07374 26.2345 1.07374 26.6013 1.81699L27.7963 4.23836C27.942 4.5335 28.2235 4.73807 28.5493 4.7854L31.2214 5.17368C32.0416 5.29287 32.3691 6.30084 31.7756 6.87937L29.842 8.76415C29.6063 8.99389 29.4988 9.32489 29.5544 9.64928L30.0109 12.3106C30.151 13.1275 29.2936 13.7505 28.5599 13.3648L26.1699 12.1083C25.8786 11.9551 25.5305 11.9551 25.2392 12.1083L22.8492 13.3648C22.1156 13.7505 21.2581 13.1275 21.3982 12.3106L21.8547 9.64928C21.9103 9.32489 21.8028 8.99389 21.5671 8.76415L19.6335 6.87938C19.04 6.30084 19.3675 5.29287 20.1877 5.17368L22.8599 4.7854C23.1856 4.73807 23.4671 4.5335 23.6128 4.23836L24.8078 1.81699Z" fill="#EBBB28"/>
<path d="M42.6033 1.81699C42.9701 1.07374 44.0299 1.07374 44.3967 1.81699L45.5918 4.23836C45.7374 4.5335 46.019 4.73807 46.3447 4.7854L49.0168 5.17368C49.8371 5.29287 50.1646 6.30084 49.571 6.87937L47.6375 8.76415C47.4018 8.99389 47.2942 9.32489 47.3499 9.64928L47.8063 12.3106C47.9464 13.1275 47.089 13.7505 46.3554 13.3648L43.9653 12.1083C43.674 11.9551 43.326 11.9551 43.0347 12.1083L40.6446 13.3648C39.911 13.7505 39.0536 13.1275 39.1937 12.3106L39.6501 9.64928C39.7058 9.32489 39.5982 8.99389 39.3625 8.76415L37.429 6.87938C36.8354 6.30084 37.163 5.29287 37.9832 5.17368L40.6553 4.7854C40.981 4.73807 41.2626 4.5335 41.4083 4.23836L42.6033 1.81699Z" fill="#EBBB28"/>
<path d="M60.3987 1.81699C60.7656 1.07374 61.8254 1.07374 62.1922 1.81699L63.3872 4.23836C63.5329 4.5335 63.8145 4.73807 64.1402 4.7854L66.8123 5.17368C67.6325 5.29287 67.96 6.30084 67.3665 6.87937L65.4329 8.76415C65.1973 8.99389 65.0897 9.32489 65.1453 9.64928L65.6018 12.3106C65.7419 13.1275 64.8845 13.7505 64.1509 13.3648L61.7608 12.1083C61.4695 11.9551 61.1215 11.9551 60.8301 12.1083L58.4401 13.3648C57.7065 13.7505 56.849 13.1275 56.9892 12.3106L57.4456 9.64928C57.5012 9.32489 57.3937 8.99389 57.158 8.76415L55.2244 6.87938C54.6309 6.30084 54.9584 5.29287 55.7786 5.17368L58.4508 4.7854C58.7765 4.73807 59.0581 4.5335 59.2037 4.23836L60.3987 1.81699Z" fill="#EBBB28"/>
<path d="M78.1942 1.81699C78.561 1.07374 79.6208 1.07374 79.9876 1.81699L81.1827 4.23836C81.3283 4.5335 81.6099 4.73807 81.9356 4.7854L84.6077 5.17368C85.428 5.29287 85.7555 6.30084 85.1619 6.87937L83.2284 8.76415C82.9927 8.99389 82.8851 9.32489 82.9408 9.64928L83.3972 12.3106C83.5373 13.1275 82.6799 13.7505 81.9463 13.3648L79.5562 12.1083C79.2649 11.9551 78.9169 11.9551 78.6256 12.1083L76.2355 13.3648C75.5019 13.7505 74.6445 13.1275 74.7846 12.3106L75.241 9.64928C75.2967 9.32489 75.1891 8.99389 74.9534 8.76415L73.0199 6.87938C72.4263 6.30084 72.7538 5.29287 73.5741 5.17368L76.2462 4.7854C76.5719 4.73807 76.8535 4.5335 76.9991 4.23836L78.1942 1.81699Z" fill="#E5E5E5"/>
</svg>
