<svg width="133" height="90" viewBox="0 0 133 90" fill="none" xmlns="http://www.w3.org/2000/svg">
<path d="M132.999 44.9888C132.999 44.8755 132.992 44.7613 132.982 44.648C132.979 44.6144 132.976 44.5807 132.972 44.5481C132.96 44.4552 132.946 44.3634 132.929 44.2726C132.924 44.2461 132.92 44.2196 132.914 44.1931C132.89 44.0798 132.861 43.9676 132.826 43.8574C132.819 43.8319 132.809 43.8074 132.801 43.7819C132.772 43.6942 132.74 43.6065 132.705 43.5208C132.692 43.4902 132.679 43.4596 132.665 43.429C132.623 43.3331 132.577 43.2382 132.526 43.1454C132.52 43.1352 132.516 43.1239 132.51 43.1137C132.453 43.0117 132.39 42.9128 132.323 42.8148C132.306 42.7893 132.288 42.7659 132.27 42.7404C132.218 42.6679 132.162 42.5955 132.104 42.5261C132.082 42.4996 132.061 42.4741 132.039 42.4486C131.961 42.3598 131.88 42.2731 131.794 42.1915L110.052 21.6201C109.341 20.9458 108.4 20.5714 107.423 20.5714H80.5669V3.8572C80.5669 1.72712 78.85 0 76.7303 0H15.3465C13.2278 0 11.5098 1.72712 11.5098 3.8572V51.428H3.83662C1.7179 51.428 0 53.1551 0 55.2852V62.9996C0 69.3796 5.16284 74.5712 11.5098 74.5712H16.625V75.8566C16.625 83.6546 22.9355 90 30.6919 90C38.4494 90 44.7598 83.6546 44.7598 75.8566V74.5712H83.125V75.8566C83.125 83.6546 89.4355 90 97.1919 90C104.949 90 111.26 83.6546 111.26 75.8566V74.5712H129.163C131.282 74.5712 133 72.8441 133 70.714V45.0102C133 45.0082 133 45.0061 133 45.0051V45C133 44.9959 132.999 44.9929 132.999 44.9888ZM95.9134 28.2858H105.901L119.489 41.1428H95.9134V28.2858ZM37.0866 7.7144H54.9902V27.9012L48.012 23.6921C47.4052 23.3258 46.7213 23.1432 46.0384 23.1432C45.3555 23.1432 44.6726 23.3258 44.0648 23.6921L37.0866 27.9012V7.7144ZM19.1831 7.7144H29.4134V34.7138C29.4134 36.1032 30.1572 37.3856 31.3596 38.0701C32.562 38.7546 34.0384 38.7363 35.2236 38.0211L46.0384 31.4983L56.8532 38.0222C57.46 38.3884 58.1429 38.571 58.8268 38.571C59.4782 38.571 60.1307 38.4047 60.7172 38.0711C61.9196 37.3856 62.6634 36.1032 62.6634 34.7138V7.7144H72.8947V51.428H19.1831V7.7144ZM37.0866 75.8566C37.0866 79.4016 34.218 82.2856 30.6919 82.2856C27.1668 82.2856 24.2982 79.4016 24.2982 75.8566V74.5712H37.0866V75.8566ZM103.587 75.8566C103.587 79.4016 100.718 82.2856 97.1919 82.2856C93.6668 82.2856 90.7982 79.4016 90.7982 75.8566V74.5712H103.587V75.8566ZM11.5098 66.8568C9.39418 66.8568 7.67323 65.1266 7.67323 62.9996V59.1424H76.7303C78.85 59.1424 80.5669 57.4153 80.5669 55.2852V28.2858H88.2402V45C88.2402 47.1301 89.9581 48.8572 92.0768 48.8572H125.327V53.9998H120.212C118.093 53.9998 116.375 55.7269 116.375 57.857C116.375 59.9871 118.093 61.7142 120.212 61.7142H125.327V66.8568H11.5098Z" fill="#007CB6"/>
</svg>
