<svg width="119" height="119" viewBox="0 0 119 119" fill="none" xmlns="http://www.w3.org/2000/svg">
<path d="M112.553 50.066C111.158 48.9194 109.05 47.1862 108.81 46.2865C108.54 45.276 109.488 42.7348 110.18 40.8799C111.52 37.2837 113.04 33.2082 111.033 29.7409C109.002 26.231 104.675 25.5101 100.858 24.8746C99.0399 24.5714 96.2907 24.1138 95.5889 23.4111C94.8862 22.7083 94.4286 19.9601 94.1254 18.1416C93.4899 14.3248 92.769 9.99777 89.2591 7.9668C85.7918 5.96035 81.7163 7.48017 78.121 8.82023C76.2652 9.51205 73.7231 10.459 72.7135 10.1902C71.8138 9.94965 70.0806 7.84151 68.934 6.44698C66.4491 3.42459 63.6328 0 59.5 0C55.3672 0 52.5509 3.42459 50.066 6.44698C48.9194 7.84151 47.1862 9.94965 46.2865 10.1902C45.276 10.4599 42.7348 9.51205 40.8799 8.82023C37.2837 7.48017 33.2082 5.96035 29.7409 7.9668C26.231 9.99777 25.5101 14.3248 24.8746 18.1416C24.5714 19.9601 24.1138 22.7093 23.4111 23.4111C22.7083 24.1138 19.9601 24.5714 18.1416 24.8746C14.3248 25.5101 9.99777 26.231 7.9668 29.7409C5.96035 33.2082 7.48017 37.2837 8.82023 40.879C9.51205 42.7348 10.4599 45.276 10.1902 46.2865C9.94965 47.1862 7.84151 48.9194 6.44698 50.066C3.42459 52.5509 0 55.3672 0 59.5C0 63.6328 3.42459 66.4491 6.44698 68.934C7.84151 70.0806 9.94965 71.8138 10.1902 72.7135C10.4599 73.724 9.51205 76.2652 8.82023 78.1201C7.48017 81.7163 5.96035 85.7918 7.9668 89.2591C9.99777 92.769 14.3248 93.4899 18.1416 94.1254C19.9601 94.4286 22.7093 94.8862 23.4111 95.5889C24.1138 96.2917 24.5714 99.0399 24.8746 100.858C25.5101 104.675 26.231 109.002 29.7409 111.033C33.2082 113.039 37.2837 111.52 40.879 110.18C42.7348 109.488 45.276 108.54 46.2865 108.81C47.1862 109.05 48.9194 111.158 50.066 112.553C52.5509 115.575 55.3672 119 59.5 119C63.6328 119 66.4491 115.575 68.934 112.553C70.0806 111.158 71.8138 109.05 72.7135 108.81C73.724 108.541 76.2652 109.488 78.1201 110.18C81.7163 111.52 85.7918 113.04 89.2591 111.033C92.769 109.002 93.4899 104.675 94.1254 100.858C94.4286 99.0399 94.8862 96.2907 95.5889 95.5889C96.2917 94.8862 99.0399 94.4286 100.858 94.1254C104.675 93.4899 109.002 92.769 111.033 89.2591C113.04 85.7918 111.52 81.7163 110.18 78.121C109.488 76.2652 108.54 73.724 108.81 72.7135C109.05 71.8138 111.158 70.0806 112.553 68.934C115.575 66.4491 119 63.6328 119 59.5C119 55.3672 115.575 52.5509 112.553 50.066ZM108.192 63.6309C105.633 65.7354 102.987 67.9117 102.178 70.9413C101.341 74.0681 102.564 77.3475 103.746 80.5187C104.299 82.0032 105.451 85.0909 105.09 85.8218C104.681 86.529 101.212 87.1065 99.7308 87.3534C96.4179 87.9054 92.9924 88.4756 90.7344 90.7344C88.4756 92.9933 87.9045 96.4179 87.3534 99.7308C87.1065 101.212 86.529 104.682 85.8227 105.09C85.82 105.091 85.4822 105.236 84.3855 105.006C83.2624 104.77 81.9296 104.273 80.5187 103.746C77.3475 102.564 74.0681 101.341 70.9404 102.178C67.9117 102.987 65.7354 105.634 63.6309 108.193C62.5787 109.473 60.3897 112.134 59.5 112.134C58.6103 112.134 56.4213 109.473 55.3691 108.192C53.2646 105.633 51.0883 102.987 48.0587 102.178C47.3396 101.985 46.6124 101.902 45.8806 101.902C43.4293 101.902 40.9226 102.836 38.4813 103.746C36.9977 104.299 33.91 105.451 33.1782 105.09C32.471 104.681 31.8935 101.212 31.6466 99.7308C31.0955 96.4179 30.5244 92.9924 28.2656 90.7344C26.0076 88.4756 22.5821 87.9045 19.2692 87.3534C17.7875 87.1065 14.3185 86.529 13.9108 85.8227C13.909 85.82 13.7637 85.4822 13.9943 84.3855C14.2304 83.2624 14.7279 81.9296 15.2536 80.5187C16.4357 77.3475 17.6586 74.0681 16.8224 70.9404C16.0126 67.9117 13.3661 65.7354 10.8076 63.6309C9.52748 62.5787 6.86552 60.3897 6.86552 59.5C6.86552 58.6103 9.52748 56.4213 10.8076 55.3691C13.367 53.2646 16.0126 51.0883 16.8224 48.0587C17.6586 44.9319 16.4357 41.6525 15.2536 38.4813C14.7007 36.9968 13.5495 33.9091 13.9099 33.1782C14.3194 32.471 17.7875 31.8935 19.2692 31.6466C22.5821 31.0946 26.0076 30.5244 28.2656 28.2656C30.5244 26.0067 31.0955 22.5821 31.6466 19.2692C31.8935 17.7875 32.471 14.3185 33.1773 13.9099C33.18 13.909 33.5178 13.7637 34.6145 13.9943C35.7376 14.2304 37.0704 14.727 38.4813 15.2536C41.6525 16.4357 44.9319 17.6577 48.0596 16.8224C51.0883 16.0126 53.2646 13.3661 55.3691 10.8067C56.4213 9.52748 58.6103 6.86552 59.5 6.86552C60.3897 6.86552 62.5787 9.52748 63.6309 10.8076C65.7354 13.367 67.9117 16.0126 70.9413 16.8224C74.069 17.6586 77.3475 16.4357 80.5187 15.2536C82.0032 14.7007 85.0909 13.5495 85.8218 13.9099C86.529 14.3194 87.1065 17.7875 87.3534 19.2692C87.9054 22.5821 88.4756 26.0076 90.7344 28.2656C92.9933 30.5244 96.4179 31.0955 99.7308 31.6466C101.212 31.8935 104.682 32.471 105.09 33.1773C105.091 33.18 105.236 33.5178 105.006 34.6145C104.77 35.7376 104.273 37.0704 103.746 38.4813C102.564 41.6525 101.341 44.9319 102.178 48.0596C102.987 51.0883 105.634 53.2646 108.193 55.3691C109.473 56.4213 112.134 58.6103 112.134 59.5C112.134 60.3897 109.473 62.5787 108.192 63.6309Z" fill="#007CB6"/>
<path d="M80.132 38.868C78.7919 37.5279 76.6175 37.5279 75.2775 38.868L38.868 75.2774C37.528 76.6174 37.528 78.791 38.868 80.1319C39.538 80.8019 40.4169 81.137 41.2957 81.137C42.1737 81.137 43.0525 80.8019 43.7225 80.1319L80.132 43.7225C81.472 42.3824 81.472 40.2089 80.132 38.868Z" fill="#007CB6"/>
<path d="M45.3404 55.2093C50.7815 55.2093 55.2093 50.7814 55.2093 45.3404C55.2093 39.8985 50.7815 35.4716 45.3404 35.4716C39.8985 35.4716 35.4716 39.8985 35.4716 45.3404C35.4716 50.7814 39.8985 55.2093 45.3404 55.2093ZM45.3404 42.3362C46.9964 42.3362 48.3438 43.6844 48.3438 45.3404C48.3438 46.9964 46.9964 48.3437 45.3404 48.3437C43.6844 48.3437 42.3362 46.9964 42.3362 45.3404C42.3362 43.6844 43.6844 42.3362 45.3404 42.3362Z" fill="#007CB6"/>
<path d="M73.6596 63.7908C68.2186 63.7908 63.7907 68.2186 63.7907 73.6596C63.7907 79.1016 68.2186 83.5285 73.6596 83.5285C79.1015 83.5285 83.5284 79.1016 83.5284 73.6596C83.5284 68.2186 79.1015 63.7908 73.6596 63.7908ZM73.6596 76.6639C72.0036 76.6639 70.6563 75.3156 70.6563 73.6596C70.6563 72.0036 72.0036 70.6563 73.6596 70.6563C75.3156 70.6563 76.6638 72.0036 76.6638 73.6596C76.6638 75.3156 75.3156 76.6639 73.6596 76.6639Z" fill="#007CB6"/>
</svg>
