<svg width="127" height="127" viewBox="0 0 127 127" fill="none" xmlns="http://www.w3.org/2000/svg">
<path d="M120.12 53.4318C118.631 52.2081 116.381 50.3584 116.125 49.3981C115.837 48.3197 116.848 45.6077 117.587 43.6282C119.017 39.7902 120.639 35.4407 118.498 31.7403C116.33 27.9944 111.712 27.2251 107.639 26.5468C105.698 26.2232 102.764 25.7349 102.015 24.9849C101.265 24.235 100.777 21.302 100.453 19.3612C99.7749 15.2878 99.0056 10.6699 95.2597 8.50239C91.5593 6.36105 87.2098 7.98304 83.3728 9.41319C81.3923 10.1515 78.6793 11.1621 77.6019 10.8753C76.6416 10.6185 74.7919 8.36868 73.5682 6.88039C70.9162 3.65482 67.9106 0 63.5 0C59.0894 0 56.0838 3.65482 53.4318 6.88039C52.2081 8.36868 50.3584 10.6185 49.3981 10.8753C48.3207 11.164 45.6077 10.1515 43.6282 9.41319C39.7902 7.98304 35.4407 6.36105 31.7403 8.50239C27.9944 10.6699 27.2251 15.2878 26.5468 19.3612C26.2232 21.302 25.7349 24.2359 24.9849 24.9849C24.235 25.7349 21.302 26.2232 19.3612 26.5468C15.2878 27.2251 10.6699 27.9944 8.50239 31.7403C6.36105 35.4407 7.98304 39.7902 9.41319 43.6272C10.1515 45.6077 11.1631 48.3197 10.8753 49.3981C10.6185 50.3584 8.36868 52.2081 6.88039 53.4318C3.65482 56.0838 0 59.0894 0 63.5C0 67.9106 3.65482 70.9162 6.88039 73.5682C8.36868 74.7919 10.6185 76.6416 10.8753 77.6019C11.1631 78.6803 10.1515 81.3923 9.41319 83.3718C7.98304 87.2098 6.36105 91.5593 8.50239 95.2597C10.6699 99.0056 15.2878 99.7749 19.3612 100.453C21.302 100.777 24.2359 101.265 24.9849 102.015C25.7349 102.765 26.2232 105.698 26.5468 107.639C27.2251 111.712 27.9944 116.33 31.7403 118.498C35.4407 120.639 39.7902 119.017 43.6272 117.587C45.6077 116.848 48.3197 115.837 49.3981 116.125C50.3584 116.381 52.2081 118.631 53.4318 120.12C56.0838 123.345 59.0894 127 63.5 127C67.9106 127 70.9162 123.345 73.5682 120.12C74.7919 118.631 76.6416 116.381 77.6019 116.125C78.6803 115.838 81.3923 116.848 83.3718 117.587C87.2098 119.017 91.5593 120.639 95.2597 118.498C99.0056 116.33 99.7749 111.712 100.453 107.639C100.777 105.698 101.265 102.764 102.015 102.015C102.765 101.265 105.698 100.777 107.639 100.453C111.712 99.7749 116.33 99.0056 118.498 95.2597C120.639 91.5593 119.017 87.2098 117.587 83.3728C116.848 81.3923 115.837 78.6803 116.125 77.6019C116.381 76.6416 118.631 74.7919 120.12 73.5682C123.345 70.9162 127 67.9106 127 63.5C127 59.0894 123.345 56.0838 120.12 53.4318ZM115.466 67.9086C112.734 70.1546 109.911 72.4772 109.047 75.7105C108.154 79.0475 109.459 82.5473 110.721 85.9318C111.311 87.516 112.54 90.8113 112.155 91.5913C111.718 92.3461 108.017 92.9623 106.435 93.2259C102.9 93.815 99.2439 94.4235 96.8342 96.8342C94.4235 99.2449 93.814 102.9 93.2259 106.435C92.9623 108.017 92.3461 111.719 91.5923 112.155C91.5894 112.156 91.2289 112.311 90.0585 112.065C88.8599 111.813 87.4375 111.283 85.9318 110.721C82.5473 109.459 79.0475 108.154 75.7095 109.047C72.4772 109.911 70.1546 112.735 67.9086 115.467C66.7857 116.832 64.4496 119.673 63.5 119.673C62.5504 119.673 60.2143 116.832 59.0914 115.466C56.8454 112.734 54.5228 109.911 51.2895 109.047C50.5221 108.841 49.746 108.752 48.965 108.752C46.3489 108.752 43.6737 109.749 41.0682 110.721C39.485 111.311 36.1897 112.541 35.4087 112.155C34.6539 111.718 34.0377 108.017 33.7741 106.435C33.186 102.9 32.5765 99.2439 30.1658 96.8342C27.7561 94.4235 24.1003 93.814 20.5646 93.2259C18.9833 92.9623 15.281 92.3461 14.846 91.5923C14.8441 91.5894 14.689 91.2289 14.9351 90.0585C15.1871 88.8599 15.718 87.4375 16.279 85.9318C17.5406 82.5473 18.8457 79.0475 17.9534 75.7095C17.0891 72.4772 14.2646 70.1546 11.5342 67.9086C10.168 66.7857 7.32707 64.4496 7.32707 63.5C7.32707 62.5504 10.168 60.2143 11.5342 59.0914C14.2656 56.8454 17.0891 54.5228 17.9534 51.2895C18.8457 47.9525 17.5406 44.4527 16.279 41.0682C15.689 39.484 14.4604 36.1887 14.845 35.4087C15.282 34.6539 18.9833 34.0377 20.5646 33.7741C24.1003 33.185 27.7561 32.5765 30.1658 30.1658C32.5765 27.7551 33.186 24.1003 33.7741 20.5646C34.0377 18.9833 34.6539 15.281 35.4077 14.845C35.4106 14.8441 35.7711 14.689 36.9415 14.9351C38.1401 15.1871 39.5625 15.7171 41.0682 16.279C44.4527 17.5406 47.9525 18.8448 51.2905 17.9534C54.5228 17.0891 56.8454 14.2646 59.0914 11.5332C60.2143 10.168 62.5504 7.32707 63.5 7.32707C64.4496 7.32707 66.7857 10.168 67.9086 11.5342C70.1546 14.2656 72.4772 17.0891 75.7105 17.9534C79.0485 18.8457 82.5473 17.5406 85.9318 16.279C87.516 15.689 90.8113 14.4604 91.5913 14.845C92.3461 15.282 92.9623 18.9833 93.2259 20.5646C93.815 24.1003 94.4235 27.7561 96.8342 30.1658C99.2449 32.5765 102.9 33.186 106.435 33.7741C108.017 34.0377 111.719 34.6539 112.155 35.4077C112.156 35.4106 112.311 35.7711 112.065 36.9415C111.813 38.1401 111.283 39.5625 110.721 41.0682C109.459 44.4527 108.154 47.9525 109.047 51.2905C109.911 54.5228 112.735 56.8454 115.467 59.0914C116.832 60.2143 119.673 62.5504 119.673 63.5C119.673 64.4496 116.832 66.7857 115.466 67.9086Z" fill="#007CB6"/>
<path d="M83.0385 53.7312H76.9323V45.1823C76.9323 40.4694 73.0983 36.6344 68.3844 36.6344H61.0573C59.0342 36.6344 57.3938 38.2748 57.3938 40.2979V53.7312H36.6344C34.6113 53.7312 32.9709 55.3707 32.9709 57.3938V86.7021C32.9709 88.7252 34.6113 90.3656 36.6344 90.3656H83.0385C89.0982 90.3656 94.0291 85.4347 94.0291 79.375V64.7209C94.0291 58.6612 89.0982 53.7312 83.0385 53.7312ZM40.2979 61.0573H47.625V83.0385H40.2979V61.0573ZM86.7021 79.375C86.7021 81.3952 85.0588 83.0385 83.0385 83.0385H54.9521V61.0573H61.0573C63.0805 61.0573 64.7209 59.4179 64.7209 57.3938V43.9615H68.3844C69.0578 43.9615 69.6062 44.5089 69.6062 45.1823V57.3938C69.6062 59.4179 71.2457 61.0573 73.2688 61.0573H83.0385C85.0588 61.0573 86.7021 62.7016 86.7021 64.7209V79.375Z" fill="#007CB6"/>
</svg>
