<svg width="109" height="104" viewBox="0 0 109 104" fill="none" xmlns="http://www.w3.org/2000/svg">
<path d="M108.848 57.8152C108.574 56.9644 107.95 56.2709 107.132 55.9075L105.394 55.1349C99.5315 52.5295 92.6949 54.512 89.1373 59.8493L78.1642 76.3085C78.4511 75.4079 78.6058 74.4482 78.6058 73.4544C78.6058 68.2527 74.3746 64.0215 69.1728 64.0215H43.368C40.8183 61.372 37.2507 59.8293 33.5384 59.8293H24.1055V50.3964C24.1055 48.66 22.6976 47.2521 20.9612 47.2521H3.14395C1.40755 47.2521 -0.000366211 48.66 -0.000366211 50.3964V100.705C-0.000366211 102.441 1.40755 103.849 3.14395 103.849H20.9612C22.6976 103.849 24.1055 102.441 24.1055 100.705V92.7718L40.7551 99.4314C41.126 99.5802 41.5227 99.6567 41.9227 99.6567H83.8466C84.9643 99.6567 85.9988 99.0621 86.5626 98.0966L108.572 60.3657C109.022 59.5931 109.122 58.6659 108.848 57.8152ZM17.8168 97.5602H6.28826V53.5407H17.8168V97.5602ZM82.0403 93.3673H42.5289L24.1055 85.9984V66.1171H33.5384C35.8353 66.1171 38.0291 67.2148 39.4079 69.0519C40.0017 69.8436 40.9331 70.3101 41.9227 70.3101H69.1728C70.9067 70.3101 72.3172 71.7205 72.3172 73.4544C72.3172 75.1875 70.9067 76.5987 69.1728 76.5987H50.3078C48.5714 76.5987 47.1635 78.0058 47.1635 79.7422C47.1635 81.4794 48.5714 82.8865 50.3078 82.8865H79.6536C80.7048 82.8865 81.6869 82.3609 82.2698 81.4869L94.3698 63.3371C95.9132 61.0227 98.6401 59.9183 101.273 60.3973L82.0403 93.3673Z" fill="#007CB6"/>
<path d="M12.0529 55.6363C10.3157 55.6363 8.90863 57.0442 8.90863 58.7806V62.9736C8.90863 64.71 10.3157 66.117 12.0529 66.117C13.7893 66.117 15.1964 64.71 15.1964 62.9736V58.7806C15.1964 57.0442 13.7893 55.6363 12.0529 55.6363Z" fill="#007CB6"/>
<path d="M101.215 0.0913345C100.119 0.127868 74.2153 1.1155 62.4745 12.8562C48.3359 26.9948 53.5176 38.0183 57.3756 42.9552L48.9071 51.425C47.9146 52.4175 47.9146 54.0299 48.9071 55.0211C49.4039 55.5168 50.0542 55.7652 50.707 55.7652C51.3573 55.7652 52.0076 55.5168 52.5044 55.0211L60.9608 46.5636C64.3791 49.289 68.3004 50.7162 72.4373 50.7162C78.6565 50.7162 84.9282 47.6011 91.0732 41.4561C102.816 29.7117 103.803 3.81413 103.842 2.71568L103.931 0L101.215 0.0913345ZM87.477 37.86C82.3927 42.9443 77.1928 45.632 72.4361 45.632C69.6595 45.632 66.9864 44.7076 64.5874 42.9382L70.5814 36.9442L80.7913 39.4029C80.9898 39.4504 81.1908 39.4748 81.3868 39.4748C82.5352 39.4748 83.5777 38.6917 83.8565 37.5263C84.1866 36.1587 83.3451 34.7863 81.9787 34.4575L74.7961 32.7294L79.9279 27.5976L85.4847 28.8702C85.6771 28.9141 85.8659 28.9323 86.0559 28.9323C87.2152 28.9323 88.2625 28.1359 88.5304 26.9559C88.8458 25.5883 87.9909 24.2244 86.6209 23.9102L84.1732 23.3512L90.7237 16.8019C91.7162 15.8106 91.7162 14.1983 90.7237 13.207C89.7312 12.2133 88.12 12.2133 87.1275 13.207L80.5478 19.7879L79.9669 17.2598C79.6539 15.891 78.3046 15.0373 76.9224 15.3491C75.5524 15.662 74.6975 17.0248 75.0105 18.3948L76.3026 24.0332L71.1708 29.1649L69.4196 21.902C69.092 20.5357 67.722 19.6978 66.352 20.0242C64.988 20.3518 64.1465 21.7254 64.4778 23.0906L66.9536 33.3809L60.9876 39.3469C56.1481 32.811 57.9212 24.6019 66.067 16.4548C74.3078 8.21524 91.7454 5.95014 98.5675 5.36682C97.9842 12.1816 95.7166 29.6204 87.477 37.86Z" fill="#007CB6"/>
</svg>
