<svg width="116" height="108" viewBox="0 0 116 108" fill="none" xmlns="http://www.w3.org/2000/svg">
<path fill-rule="evenodd" clip-rule="evenodd" d="M32.7792 67.4963C32.7792 63.0495 36.3839 59.4448 40.8307 59.4448C45.2774 59.4448 48.8821 63.0495 48.8821 67.4962V77.2095H68.8022V67.2495C68.8022 62.9391 72.2965 59.4448 76.6069 59.4448C80.9174 59.4448 84.4117 62.9391 84.4117 67.2495V79.8256C84.4117 86.7291 78.8152 92.3256 71.9117 92.3256H45.2792C38.3756 92.3256 32.7792 86.7291 32.7792 79.8256V67.4963ZM40.8307 64.4448C39.1454 64.4448 37.7792 65.811 37.7792 67.4963V79.8256C37.7792 83.9677 41.137 87.3256 45.2792 87.3256H71.9117C76.0538 87.3256 79.4117 83.9677 79.4117 79.8256V67.2495C79.4117 65.7005 78.1559 64.4448 76.6069 64.4448C75.0579 64.4448 73.8022 65.7005 73.8022 67.2495V77.7095C73.8022 80.1948 71.7874 82.2095 69.3022 82.2095H48.3821C45.8969 82.2095 43.8821 80.1948 43.8821 77.7095V67.4962C43.8821 65.811 42.5159 64.4448 40.8307 64.4448Z" fill="#007CB6"/>
<path fill-rule="evenodd" clip-rule="evenodd" d="M50.4606 45.4464C46.3184 45.4464 42.9606 48.8042 42.9606 52.9464V61.4513H37.9606V52.9464C37.9606 46.0428 43.557 40.4464 50.4606 40.4464H66.2368C73.1404 40.4464 78.7368 46.0428 78.7368 52.9464V61.4513H73.7368V52.9464C73.7368 48.8042 70.3789 45.4464 66.2368 45.4464H50.4606Z" fill="#007CB6"/>
<path fill-rule="evenodd" clip-rule="evenodd" d="M71.0554 72.8337H46.6289V67.8337H71.0554V72.8337Z" fill="#007CB6"/>
<path fill-rule="evenodd" clip-rule="evenodd" d="M38.7073 94.4899V89.0699H42.7073V94.4899L44.6289 94.4899V89.0699H48.6289V94.4899C48.6289 96.6991 46.838 98.4899 44.6289 98.4899H42.7073C40.4982 98.4899 38.7073 96.6991 38.7073 94.4899Z" fill="#007CB6"/>
<path fill-rule="evenodd" clip-rule="evenodd" d="M69.3022 94.4899V89.0699H73.3022V94.4899H75.2237V89.0699H79.2237V94.4899C79.2237 96.6991 77.4329 98.4899 75.2237 98.4899H73.3022C71.093 98.4899 69.3022 96.6991 69.3022 94.4899Z" fill="#007CB6"/>
<path fill-rule="evenodd" clip-rule="evenodd" d="M56.3473 0.716826C57.7232 0.0540725 59.3265 0.0564232 60.7004 0.723214L105.994 22.7055L114.334 26.8467C115.818 27.5835 116.424 29.3839 115.687 30.8679C114.95 32.3519 113.15 32.9576 111.666 32.2207L107.672 30.2376V103C107.672 105.761 105.433 108 102.672 108H14.0221C11.2607 108 9.02208 105.761 9.02208 103V30.0737L4.24996 32.2609C2.74378 32.9512 0.963141 32.2899 0.272803 30.7837C-0.417535 29.2775 0.243841 27.4968 1.75003 26.8065L10.746 22.6833L56.3473 0.716826ZM15.0221 27.2834V102H101.672V27.2772L58.5156 6.3322L15.0221 27.2834Z" fill="#007CB6"/>
</svg>
