<svg width="90" height="117" viewBox="0 0 90 117" fill="none" xmlns="http://www.w3.org/2000/svg">
<path d="M90 44.6917C90 20.0489 69.9511 0 45.3074 0C20.6645 0 0.615631 20.0489 0.615631 44.6917C0.615631 59.3425 7.68393 72.8728 19.6095 81.254V112.847C19.6095 113.985 20.1867 115.045 21.1415 115.662C22.0962 116.28 23.3002 116.37 24.3374 115.904L45.3074 106.467L66.2782 115.904C66.7171 116.102 67.186 116.199 67.6532 116.199C68.2898 116.199 68.9228 116.018 69.4742 115.662C70.429 115.045 71.0052 113.985 71.0052 112.847V81.254C82.9317 72.8719 90 59.3416 90 44.6917ZM26.3135 85.1565C26.356 85.1769 26.4004 85.1946 26.4429 85.215C26.7496 85.3578 27.0564 85.4978 27.3658 85.6335C27.3924 85.645 27.419 85.6574 27.4456 85.6689C27.7762 85.8134 28.1096 85.9526 28.4429 86.0883C28.5209 86.1202 28.5989 86.1521 28.6761 86.1831C29.0138 86.3179 29.3525 86.4508 29.6938 86.5776C29.6938 86.5785 29.6947 86.5785 29.6947 86.5785C30.0351 86.7053 30.3773 86.8267 30.7204 86.9446C30.7984 86.9712 30.8764 86.9987 30.9545 87.0253C31.2958 87.1406 31.6389 87.2532 31.9828 87.3604C32.0147 87.3702 32.0467 87.3799 32.0786 87.3897C32.3906 87.4863 32.7036 87.5785 33.0174 87.6681V104.647L26.3135 107.664V85.1565ZM45.3074 99.4394C44.8384 99.4394 44.3694 99.5378 43.9324 99.7346L39.7213 101.63V89.0368C39.9013 89.059 40.0822 89.0794 40.263 89.0998C40.3162 89.106 40.3703 89.1122 40.4235 89.1184C40.7816 89.1574 41.1398 89.1911 41.4988 89.2221C41.5813 89.2283 41.6637 89.2354 41.7471 89.2416C42.0831 89.2682 42.4191 89.2922 42.7559 89.3108C42.7896 89.3126 42.8233 89.3152 42.857 89.317C43.2196 89.3365 43.5822 89.3507 43.9448 89.3622C44.0317 89.3649 44.1185 89.3666 44.2054 89.3684C44.5724 89.3782 44.9395 89.3835 45.3074 89.3835C45.6753 89.3835 46.0423 89.3773 46.4093 89.3684C46.4962 89.3666 46.5831 89.364 46.67 89.3622C47.0334 89.3507 47.396 89.3365 47.7577 89.317C47.7914 89.3152 47.826 89.3126 47.8597 89.3108C48.1966 89.2922 48.5326 89.2682 48.8677 89.2416C48.951 89.2346 49.0335 89.2283 49.1168 89.2213C49.4758 89.1911 49.834 89.1574 50.1913 89.1184C50.2453 89.1122 50.2994 89.106 50.3535 89.0998C50.5335 89.0794 50.7143 89.059 50.8943 89.0368V101.63L46.6833 99.7346C46.2453 99.5378 45.7763 99.4394 45.3074 99.4394ZM64.3022 107.664L57.5982 104.647V87.6681C57.9147 87.5776 58.2303 87.4845 58.545 87.387C58.5734 87.3782 58.6018 87.3702 58.6293 87.3613C58.9759 87.2532 59.3207 87.1406 59.6656 87.0235C59.7401 86.9978 59.8145 86.9721 59.8899 86.9464C60.5805 86.7079 61.2658 86.4526 61.9449 86.1805C62.0185 86.1512 62.092 86.1211 62.1656 86.0909C62.5034 85.9535 62.8394 85.8134 63.1736 85.6672C63.194 85.6583 63.2144 85.6494 63.2348 85.6406C63.5513 85.5014 63.866 85.3578 64.1798 85.2115C64.2206 85.1929 64.2614 85.176 64.3013 85.1565V107.664H64.3022ZM65.8385 76.6582C59.7223 80.598 52.6221 82.6804 45.3074 82.6804C43.7072 82.6804 42.1176 82.5749 40.5449 82.3772C34.9332 81.6733 29.5546 79.7354 24.7762 76.6573C13.8453 69.6218 7.31957 57.6723 7.31957 44.6917C7.31957 23.7457 24.3613 6.70394 45.3074 6.70394C66.2543 6.70394 83.2961 23.7457 83.2961 44.6917C83.2961 57.6723 76.7703 69.6218 65.8385 76.6582Z" fill="#007CB6"/>
<path d="M69.2525 36.1074L54.7835 34.0046L48.3136 20.8937C47.7489 19.7492 46.584 19.0249 45.3074 19.0249C44.0316 19.0249 42.8667 19.7492 42.302 20.8937L35.8312 34.0046L21.3622 36.1074C20.0998 36.291 19.051 37.1748 18.6565 38.3885C18.262 39.6021 18.5909 40.9337 19.5049 41.8247L29.9739 52.0295L27.5023 66.4401C27.2869 67.6972 27.8037 68.9684 28.8356 69.7184C29.8684 70.4685 31.2364 70.5669 32.3658 69.9738L45.3074 63.1705L58.2489 69.9738C58.7392 70.2318 59.2746 70.3585 59.8083 70.3585C60.5034 70.3585 61.1949 70.1431 61.7791 69.7184C62.811 68.9684 63.3278 67.698 63.1124 66.4401L60.6408 52.0304L71.1107 41.8247C72.0247 40.9337 72.3536 39.6021 71.9591 38.3885C71.5646 37.1748 70.5158 36.291 69.2525 36.1074ZM54.6992 48.4595C53.9094 49.2299 53.5494 50.3389 53.7356 51.4267L55.3571 60.8797L46.8676 56.4161C46.3792 56.1599 45.8437 56.0313 45.3082 56.0313C44.7719 56.0313 44.2364 56.1599 43.7479 56.4161L35.2585 60.8797L36.88 51.4267C37.0662 50.3389 36.7054 49.2299 35.9155 48.4595L29.0475 41.7644L38.5396 40.3858C39.6309 40.2271 40.5751 39.541 41.0626 38.5516L45.3074 29.9514L49.5521 38.5516C50.0405 39.541 50.9838 40.2271 52.076 40.3858L61.5681 41.7644L54.6992 48.4595Z" fill="#007CB6"/>
</svg>
